<svg width="106" height="20" viewBox="0 0 106 20" fill="none" xmlns="http://www.w3.org/2000/svg">
<path d="M5.38938 0L9.99439 12.1751L14.6247 0H20.0141L11.968 20H8.02081L0 0H5.38938Z" fill="white"/>
<path d="M29.5028 8.93899H30.439C31.4174 8.93899 32.168 8.72679 32.6909 8.30239C33.2138 7.87798 33.4753 7.2679 33.4753 6.47215C33.4753 5.67639 33.2138 5.06631 32.6909 4.64191C32.168 4.21751 31.4174 4.0053 30.439 4.0053H29.5028V8.93899ZM40.4081 20H34.2343L29.5028 12.3077V20H24.5436V0H32.2608C33.3235 0 34.2512 0.167993 35.044 0.503979C35.8368 0.822281 36.4862 1.26437 36.9923 1.83024C37.5152 2.39611 37.9032 3.0504 38.1562 3.7931C38.4261 4.53581 38.561 5.33157 38.561 6.18037C38.561 7.70115 38.2068 8.93899 37.4983 9.8939C36.8067 10.8311 35.7778 11.4677 34.4114 11.8037L40.4081 20Z" fill="white"/>
<path d="M47.8301 0L51.1194 12.9178L55.1678 0H59.1149L63.1633 12.9178L66.4526 0H71.6396L65.9465 20H60.8861L57.1414 8.40849L53.3966 20H48.3362L42.6432 0H47.8301Z" fill="white"/>
<path d="M81.1402 0V20H76.1809V0H81.1402Z" fill="white"/>
<path d="M93.1212 9.33687L87.1751 0H93.2983L95.8791 5.17241L99.0672 0H105.19L98.8901 9.33687L106 20H99.9528L96.1321 13.4748L91.6536 20H85.657L93.1212 9.33687Z" fill="white"/>
</svg>
